# xmcd
#
# Track frame offsets: 
#        150
#        9649
#        21442
#        31329
#        42630
#        52611
#        62266
#        73083
#        85522
#        97017
#        108212
#        119029
#
# Disc length: 1762 seconds
#
# Revision: 0
# Processed by: cddbd v1.5.2PL0 Copyright (c) Steve Scherf et al.
# Submitted via: ExactAudioCopy v0.95b3
#
DISCID=9706e00c
DTITLE=Brenda Lee  - Merry Christmas From Brenda Lee
DYEAR=1900
DGENRE=
TTITLE0=Rockin' Around The Christmas Tree
TTITLE1=This Time Of Year
TTITLE2=Jingle Bell Rock
TTITLE3=Strawberry Snow
TTITLE4=Santa Claus Is Comin' To Town
TTITLE5=Silver Bells
TTITLE6=Winter Wonderland
TTITLE7=Blue Christmas
TTITLE8=A Marshmellow World
TTITLE9=Christmas Will Be Just Another Lonely Day
TTITLE10=Frosty The Snowman
TTITLE11=The Angel And The Little Blue Bell
EXTD=
EXTT0=
EXTT1=
EXTT2=
EXTT3=
EXTT4=
EXTT5=
EXTT6=
EXTT7=
EXTT8=
EXTT9=
EXTT10=
EXTT11=
PLAYORDER=
